# File produced by Open Asset Import Library (http://www.assimp.sf.net)
# (assimp v3.1.128981410)

mtllib Entrada.mtl

# vertex positions
v -0.153515 0.429278 8.065368
v -0.116819 0.429278 8.065368
v -0.116819 0.465973 8.065368
v -0.153515 0.465973 8.065368
v -0.116819 0.465973 8.028673
v -0.153515 0.465973 8.028673
v -0.116819 0.429278 8.028673
v -0.153515 0.429278 8.028673
v -0.337613 0.387795 8.141384
v -0.147753 0.387795 8.141384
v -0.147753 0.496396 8.141384
v -0.337613 0.496396 8.141384
v -0.337613 0.496396 7.990975
v -0.147753 0.496396 7.990975
v -0.147753 0.496396 7.952818
v -0.337613 0.496396 7.952818
v -0.147753 0.387795 7.952818
v -0.337613 0.387795 7.952818
v -0.147753 0.387795 7.990975
v -0.337613 0.387795 7.990975
v -0.337613 -0.014694 8.141384
v -0.147753 -0.014694 8.141384
v -0.147753 -0.014694 7.990975
v -0.147753 -0.014694 7.952818
v -0.337613 -0.014694 7.952818
v -0.337613 -0.014694 7.990975
v -0.337613 0.496396 8.103707
v -0.147753 0.496396 8.103707
v -0.147753 0.387795 8.103707
v -0.337613 0.387795 8.103707
v -0.147753 -0.014694 8.103707
v -0.337613 -0.014694 8.103707
v -0.269224 0.399363 9.576332
v -0.227810 0.399363 9.576332
v -0.227810 0.481092 9.576332
v -0.269224 0.481092 9.576332
v -0.227810 0.481092 7.914563
v -0.269224 0.481092 7.914563
v -0.227810 0.399363 7.914563
v -0.269224 0.399363 7.914563
v -0.153515 0.429278 7.215913
v -0.116819 0.429278 7.215913
v -0.116819 0.465973 7.215913
v -0.153515 0.465973 7.215913
v -0.116819 0.465973 7.179218
v -0.153515 0.465973 7.179218
v -0.116819 0.429278 7.179218
v -0.153515 0.429278 7.179218
v -0.337613 0.387795 7.291929
v -0.147753 0.387795 7.291929
v -0.147753 0.496396 7.291929
v -0.337613 0.496396 7.291929
v -0.337613 0.496396 7.141521
v -0.147753 0.496396 7.141521
v -0.147753 0.496396 7.103363
v -0.337613 0.496396 7.103363
v -0.147753 0.387795 7.103363
v -0.337613 0.387795 7.103363
v -0.147753 0.387795 7.141521
v -0.337613 0.387795 7.141521
v -0.337613 -0.014694 7.291929
v -0.147753 -0.014694 7.291929
v -0.147753 -0.014694 7.141521
v -0.147753 -0.014694 7.103363
v -0.337613 -0.014694 7.103363
v -0.337613 -0.014694 7.141521
v -0.337613 0.496396 7.254252
v -0.147753 0.496396 7.254252
v -0.147753 0.387795 7.254252
v -0.337613 0.387795 7.254252
v -0.147753 -0.014694 7.254252
v -0.337613 -0.014694 7.254252
v -0.269224 0.399363 7.327255
v -0.227810 0.399363 7.327255
v -0.227810 0.481092 7.327255
v -0.269224 0.481092 7.327255
v -0.227810 0.481092 5.665486
v -0.269224 0.481092 5.665486
v -0.227810 0.399363 5.665486
v -0.269224 0.399363 5.665486

# UV coordinates
vt 0.949934 0.890560
vt 0.949933 0.913716
vt 0.926778 0.913716
vt 0.926778 0.890560
vt 0.949934 0.960028
vt 0.949933 0.936872
vt 0.973089 0.936872
vt 0.973089 0.960028
vt 0.996244 0.890560
vt 0.996245 0.913716
vt 0.973089 0.913716
vt 0.973089 0.890560
vt 0.949933 0.867405
vt 0.973089 0.867405
vt 0.838811 0.915540
vt 0.815986 0.915538
vt 0.815991 0.902478
vt 0.838818 0.902483
vt 0.838833 0.884386
vt 0.815990 0.884384
vt 0.815990 0.879794
vt 0.838832 0.879792
vt 0.815985 0.866734
vt 0.838820 0.866723
vt 0.811393 0.879806
vt 0.811394 0.866736
vt 0.815986 0.879812
vt 0.843411 0.866724
vt 0.843399 0.879810
vt 0.838796 0.879811
vt 0.838803 0.963926
vt 0.815980 0.963925
vt 0.811378 0.818292
vt 0.815970 0.818291
vt 0.838817 0.818287
vt 0.843409 0.818286
vt 0.838822 0.897951
vt 0.815992 0.897947
vt 0.797825 0.879799
vt 0.797834 0.866735
vt 0.856987 0.866727
vt 0.856985 0.879800
vt 0.793302 0.866733
vt 0.793297 0.879796
vt 0.793320 0.818317
vt 0.797852 0.818319
vt 0.856972 0.818339
vt 0.861501 0.818338
vt 0.861518 0.866725
vt 0.861518 0.879791
vt 0.797843 0.843899
vt 0.811397 0.843902
vt 0.749417 0.866724
vt 0.749424 0.843885
vt 0.859801 0.866733
vt 0.859800 0.843902
vt 0.813379 0.786335
vt 0.813379 0.783918
vt 0.819444 0.783918
vt 0.819444 0.786337
vt 0.916502 0.783917
vt 0.916502 0.786336
vt 0.922567 0.783911
vt 0.922569 0.786330
vt 0.716391 0.786335
vt 0.716391 0.783918
vt 0.716391 0.777856
vt 0.813379 0.777856
vt 0.813379 0.792396
vt 0.716391 0.792396
vt 0.873767 0.890560
vt 0.873767 0.913716
vt 0.850612 0.913716
vt 0.850612 0.890560
vt 0.873767 0.960028
vt 0.873767 0.936872
vt 0.896923 0.936872
vt 0.896923 0.960028
vt 0.920078 0.890560
vt 0.920078 0.913716
vt 0.896923 0.913716
vt 0.896923 0.890560
vt 0.873767 0.867405
vt 0.896923 0.867405
vt 0.968522 0.772732
vt 0.945697 0.772730
vt 0.945702 0.759670
vt 0.968529 0.759675
vt 0.968544 0.741578
vt 0.945702 0.741575
vt 0.945702 0.736986
vt 0.968543 0.736984
vt 0.945696 0.723926
vt 0.968532 0.723915
vt 0.941104 0.736998
vt 0.941105 0.723928
vt 0.945697 0.737004
vt 0.973123 0.723916
vt 0.973110 0.737002
vt 0.968507 0.737002
vt 0.968514 0.821118
vt 0.945691 0.821116
vt 0.941089 0.675484
vt 0.945681 0.675483
vt 0.968529 0.675479
vt 0.973121 0.675478
vt 0.968533 0.755143
vt 0.945703 0.755139
vt 0.927536 0.736991
vt 0.927546 0.723927
vt 0.986699 0.723919
vt 0.986696 0.736992
vt 0.923014 0.723925
vt 0.923008 0.736987
vt 0.923031 0.675509
vt 0.927563 0.675511
vt 0.986683 0.675531
vt 0.991213 0.675530
vt 0.991230 0.723917
vt 0.991230 0.736982
vt 0.927555 0.701091
vt 0.941108 0.701093
vt 0.879129 0.723916
vt 0.879136 0.701076
vt 0.989512 0.723925
vt 0.989512 0.701093
vt 0.813379 0.805586
vt 0.813379 0.803168
vt 0.819444 0.803169
vt 0.819444 0.805588
vt 0.916502 0.803168
vt 0.916502 0.805587
vt 0.922567 0.803162
vt 0.922569 0.805580
vt 0.716391 0.805586
vt 0.716391 0.803169
vt 0.716391 0.797107
vt 0.813379 0.797107
vt 0.813379 0.811647
vt 0.716391 0.811647

# vertex normals
vn 0.000000 -0.707105 0.707109
vn 0.577341 -0.577353 0.577357
vn 0.577341 0.577353 0.577357
vn 0.000000 0.707105 0.707109
vn 0.577341 0.577353 -0.577357
vn 0.000000 0.707105 -0.707109
vn 0.577341 -0.577353 -0.577357
vn 0.000000 -0.707105 -0.707109
vn -1.000000 0.000000 0.000000
vn -0.194649 0.000000 0.980873
vn 0.194648 0.000000 0.980873
vn 0.184274 0.322151 0.928580
vn -0.184275 0.322151 0.928580
vn -0.496515 0.868028 -0.000000
vn 0.496515 0.868028 -0.000000
vn 0.186294 0.325686 -0.926943
vn -0.186294 0.325686 -0.926943
vn 0.197037 0.000000 -0.980396
vn -0.197037 0.000000 -0.980396
vn 0.371408 -0.250415 0.894063
vn -0.371408 -0.250415 0.894063
vn -0.194648 0.000000 0.980873
vn 0.194648 0.000000 0.980873
vn 0.197037 0.000000 0.980396
vn 0.197037 0.000000 -0.980396
vn -0.197037 0.000000 -0.980396
vn -0.197037 0.000000 0.980396
vn -0.496516 0.868028 -0.000000
vn 0.496515 0.868028 -0.000000
vn 0.368925 -0.250682 -0.895016
vn -0.368925 -0.250682 -0.895016
vn 0.194648 0.000000 -0.980873
vn -0.194648 0.000000 -0.980873
vn -0.891794 -0.451896 0.022225
vn 0.891794 -0.451896 0.022225
vn 0.891794 0.451896 0.022225
vn -0.891794 0.451896 0.022225
vn 0.891794 0.451896 -0.022225
vn -0.891794 0.451896 -0.022225
vn 0.891794 -0.451896 -0.022225
vn -0.891794 -0.451896 -0.022225

# Mesh
g boton_low
usemtl lambert1
f 4/4/4 1/1/1 2/2/2
f 2/2/2 3/3/3 4/4/4
f 6/8/6 4/5/4 3/6/3
f 3/6/3 5/7/5 6/8/6
f 8/12/8 6/9/6 5/10/5
f 5/10/5 7/11/7 8/12/8
f 1/1/1 8/12/8 7/11/7
f 7/11/7 2/2/2 1/1/1
f 3/6/3 2/2/2 7/11/7
f 7/11/7 5/7/5 3/6/3
f 1/1/9 4/13/9 6/14/9
f 6/14/9 8/12/9 1/1/9

# Mesh
g columna_low
usemtl lambert1
f 12/18/13 9/15/10 10/16/11
f 10/16/11 11/17/12 12/18/13
f 16/22/17 13/19/14 14/20/15
f 14/20/15 15/21/16 16/22/17
f 18/24/19 16/22/17 15/21/16
f 15/21/16 17/23/18 18/24/19
f 15/27/16 14/25/15 19/26/20
f 19/26/20 17/23/18 15/27/16
f 16/30/17 18/24/19 20/28/21
f 20/28/21 13/29/14 16/30/17
f 9/15/10 21/31/22 22/32/23
f 22/32/23 10/16/11 9/15/10
f 17/23/18 19/26/20 23/33/24
f 23/33/24 24/34/25 17/23/18
f 25/35/26 18/24/19 17/23/18
f 17/23/18 24/34/25 25/35/26
f 18/24/19 25/35/26 26/36/27
f 26/36/27 20/28/21 18/24/19
f 13/19/14 27/37/28 28/38/29
f 28/38/29 14/20/15 13/19/14
f 14/25/15 28/39/29 29/40/30
f 29/40/30 19/26/20 14/25/15
f 27/42/28 13/29/14 20/28/21
f 20/28/21 30/41/31 27/42/28
f 27/37/28 12/18/13 11/17/12
f 11/17/12 28/38/29 27/37/28
f 11/44/12 10/43/11 29/40/30
f 29/40/30 28/39/29 11/44/12
f 10/43/11 22/45/23 31/46/32
f 31/46/32 29/40/30 10/43/11
f 9/49/10 30/41/31 32/47/33
f 32/47/33 21/48/22 9/49/10
f 12/50/13 27/42/28 30/41/31
f 30/41/31 9/49/10 12/50/13
f 29/40/30 30/51/31 20/52/21
f 20/52/21 19/26/20 29/40/30
f 29/40/30 31/53/32 32/54/33
f 32/54/33 30/51/31 29/40/30
f 26/56/27 23/55/24 19/26/20
f 19/26/20 20/52/21 26/56/27

# Mesh
g barrera_low
usemtl lambert1
f 36/60/37 33/57/34 34/58/35
f 34/58/35 35/59/36 36/60/37
f 38/62/39 36/60/37 35/59/36
f 35/59/36 37/61/38 38/62/39
f 40/64/41 38/62/39 37/61/38
f 37/61/38 39/63/40 40/64/41
f 33/57/34 40/65/41 39/66/40
f 39/66/40 34/58/35 33/57/34
f 35/68/36 34/58/35 39/66/40
f 39/66/40 37/67/38 35/68/36
f 38/70/39 40/65/41 33/57/34
f 33/57/34 36/69/37 38/70/39

# Mesh
g boton_low
usemtl lambert1
f 44/74/4 41/71/1 42/72/2
f 42/72/2 43/73/3 44/74/4
f 46/78/6 44/75/4 43/76/3
f 43/76/3 45/77/5 46/78/6
f 48/82/8 46/79/6 45/80/5
f 45/80/5 47/81/7 48/82/8
f 41/71/1 48/82/8 47/81/7
f 47/81/7 42/72/2 41/71/1
f 43/76/3 42/72/2 47/81/7
f 47/81/7 45/77/5 43/76/3
f 41/71/9 44/83/9 46/84/9
f 46/84/9 48/82/9 41/71/9

# Mesh
g columna_low
usemtl lambert1
f 52/88/13 49/85/10 50/86/11
f 50/86/11 51/87/12 52/88/13
f 56/92/17 53/89/14 54/90/15
f 54/90/15 55/91/16 56/92/17
f 58/94/19 56/92/17 55/91/16
f 55/91/16 57/93/18 58/94/19
f 55/97/16 54/95/15 59/96/20
f 59/96/20 57/93/18 55/97/16
f 56/100/17 58/94/19 60/98/21
f 60/98/21 53/99/14 56/100/17
f 49/85/10 61/101/22 62/102/23
f 62/102/23 50/86/11 49/85/10
f 57/93/18 59/96/20 63/103/24
f 63/103/24 64/104/25 57/93/18
f 65/105/26 58/94/19 57/93/18
f 57/93/18 64/104/25 65/105/26
f 58/94/19 65/105/26 66/106/27
f 66/106/27 60/98/21 58/94/19
f 53/89/14 67/107/28 68/108/29
f 68/108/29 54/90/15 53/89/14
f 54/95/15 68/109/29 69/110/30
f 69/110/30 59/96/20 54/95/15
f 67/112/28 53/99/14 60/98/21
f 60/98/21 70/111/31 67/112/28
f 67/107/28 52/88/13 51/87/12
f 51/87/12 68/108/29 67/107/28
f 51/114/12 50/113/11 69/110/30
f 69/110/30 68/109/29 51/114/12
f 50/113/11 62/115/23 71/116/32
f 71/116/32 69/110/30 50/113/11
f 49/119/10 70/111/31 72/117/33
f 72/117/33 61/118/22 49/119/10
f 52/120/13 67/112/28 70/111/31
f 70/111/31 49/119/10 52/120/13
f 69/110/30 70/121/31 60/122/21
f 60/122/21 59/96/20 69/110/30
f 69/110/30 71/123/32 72/124/33
f 72/124/33 70/121/31 69/110/30
f 66/126/27 63/125/24 59/96/20
f 59/96/20 60/122/21 66/126/27

# Mesh
g barrera_low
usemtl lambert1
f 76/130/37 73/127/34 74/128/35
f 74/128/35 75/129/36 76/130/37
f 78/132/39 76/130/37 75/129/36
f 75/129/36 77/131/38 78/132/39
f 80/134/41 78/132/39 77/131/38
f 77/131/38 79/133/40 80/134/41
f 73/127/34 80/135/41 79/136/40
f 79/136/40 74/128/35 73/127/34
f 75/138/36 74/128/35 79/136/40
f 79/136/40 77/137/38 75/138/36
f 78/140/39 80/135/41 73/127/34
f 73/127/34 76/139/37 78/140/39
